<?xml version="1.0" standalone="no"?>
<!DOCTYPE svg PUBLIC "-//W3C//DTD SVG 20010904//EN"
 "http://www.w3.org/TR/2001/REC-SVG-20010904/DTD/svg10.dtd">
<svg version="1.0" xmlns="http://www.w3.org/2000/svg"
 width="900.000000pt" height="506.000000pt" viewBox="0 0 900.000000 506.000000"
 preserveAspectRatio="xMidYMid meet">

<g transform="translate(0.000000,506.000000) scale(0.100000,-0.100000)"
fill="#000000" stroke="none">
<path d="M0 2530 l0 -2530 4500 0 4500 0 0 2530 0 2530 -4500 0 -4500 0 0
-2530z m4810 1607 c345 -81 623 -269 841 -567 43 -58 126 -220 158 -307 198
-537 52 -1132 -370 -1515 -203 -184 -459 -307 -729 -348 -110 -16 -329 -14
-440 5 -248 42 -477 149 -665 309 -269 228 -435 527 -486 877 -17 119 -6 380
21 489 65 266 175 470 351 654 233 244 494 375 854 430 17 2 104 3 195 1 132
-3 186 -9 270 -28z m-1500 -3002 l0 -45 -170 0 -170 0 0 -34 c0 -44 10 -47
135 -46 154 2 154 2 180 -25 22 -21 25 -33 25 -95 0 -131 -16 -140 -255 -140
l-175 0 0 50 0 50 170 0 170 0 0 35 0 35 -124 0 c-134 0 -162 6 -195 41 -17
18 -21 36 -21 90 0 58 4 72 26 98 l26 31 189 0 189 0 0 -45z m272 -37 l3 -83
120 0 120 0 3 83 3 82 44 0 45 0 0 -215 0 -215 -45 0 -45 0 0 85 0 85 -125 0
-125 0 0 -85 0 -85 -45 0 -45 0 0 215 0 215 45 0 44 0 3 -82z m608 -133 l0
-215 -45 0 -45 0 0 215 0 215 45 0 45 0 0 -215z m618 173 l-3 -43 -167 -3
-168 -2 0 -40 0 -40 171 0 170 0 -3 -42 -3 -43 -167 -3 -168 -2 0 -35 0 -35
168 -2 167 -3 0 -45 0 -45 -175 -3 c-112 -2 -184 2 -202 9 -49 20 -60 64 -56
226 3 144 3 145 31 169 28 24 32 24 218 24 l190 0 -3 -42z m275 -123 l2 -160
144 -5 145 -5 0 -45 0 -45 -163 0 -163 0 -29 33 -29 32 0 181 0 180 45 -3 46
-3 2 -160z m860 145 c38 -30 52 -82 51 -190 -1 -117 -17 -166 -63 -197 -33
-23 -42 -23 -200 -21 l-166 3 0 212 0 213 176 0 c162 0 178 -2 202 -20z
m-2475 -363 l3 -48 -48 3 c-46 3 -48 4 -51 36 -5 50 1 58 49 57 l44 0 3 -48z
m612 2 l0 -50 -47 3 -48 3 2 45 c1 25 2 46 2 48 1 1 21 2 46 2 l45 0 0 -51z
m268 -1 l3 -48 -45 0 -46 0 0 43 c0 24 2 46 5 49 3 3 22 5 43 4 37 -1 37 -1
40 -48z m612 1 l0 -50 -42 3 c-41 3 -43 5 -46 36 -5 52 3 62 48 62 l40 0 0
-51z m566 41 c5 -5 8 -28 6 -50 l-4 -40 -44 0 -44 0 0 50 0 50 38 0 c21 0 42
-4 48 -10z m602 -43 l3 -47 -45 0 -46 0 0 43 c0 53 5 59 50 55 34 -4 35 -5 38
-51z"/>
<path d="M4260 4100 c-277 -50 -505 -173 -715 -385 -181 -183 -281 -360 -353
-624 -24 -88 -26 -112 -26 -306 -1 -196 1 -217 26 -316 64 -252 180 -460 354
-634 210 -210 469 -342 754 -385 107 -16 329 -13 435 5 124 22 282 76 395 136
545 290 823 906 679 1505 -119 501 -513 881 -1034 999 -115 26 -387 29 -515 5z
m478 -59 c141 -27 219 -54 335 -112 554 -277 831 -892 672 -1487 -109 -408
-438 -756 -835 -883 -439 -141 -883 -56 -1241 238 -166 137 -320 363 -388 573
-158 482 -28 997 338 1342 177 168 416 290 646 331 122 22 353 21 473 -2z"/>
<path d="M4420 3966 c0 -27 5 -46 11 -46 7 0 9 10 7 25 -3 15 -1 25 7 25 6 0
22 -11 35 -25 33 -35 40 -32 40 21 0 27 -4 43 -10 39 -5 -3 -10 -18 -10 -32
l0 -26 -22 19 c-58 51 -58 51 -58 0z"/>
<path d="M4298 3993 c-24 -4 -28 -9 -28 -36 0 -51 11 -60 64 -52 49 8 54 18
40 73 -6 22 -15 24 -76 15z m60 -45 c3 -26 1 -28 -32 -28 -33 0 -36 2 -36 31
0 28 2 30 33 27 27 -2 33 -8 35 -30z"/>
<path d="M4637 3993 c-4 -3 -7 -24 -7 -45 0 -29 4 -38 18 -38 9 0 27 -3 40 -6
12 -4 22 -2 22 4 0 6 -15 12 -32 14 -30 3 -39 23 -11 23 6 0 15 4 19 8 4 4 -2
7 -14 7 -39 0 -23 20 16 21 30 0 33 2 17 9 -25 11 -59 12 -68 3z"/>
<path d="M4756 3949 c-10 -50 -6 -67 8 -30 l12 33 28 -42 c31 -47 38 -44 51
18 4 20 3 32 -4 32 -6 0 -11 -9 -11 -19 0 -34 -18 -32 -40 4 -27 43 -36 44
-44 4z"/>
<path d="M4206 3938 c7 -33 20 -56 28 -47 9 8 -10 73 -22 77 -8 2 -10 -6 -6
-30z"/>
<path d="M4110 3945 c-28 -11 -30 -14 -13 -14 16 -1 27 -11 38 -38 18 -44 32
-37 16 8 -9 27 -8 34 7 45 23 18 0 17 -48 -1z"/>
<path d="M4894 3905 c-18 -44 -18 -66 0 -42 8 10 20 15 30 11 9 -3 16 -2 16 4
0 5 -7 13 -16 16 -30 11 -4 25 27 14 44 -15 49 -1 6 17 -48 20 -46 20 -63 -20z"/>
<path d="M4040 3909 c0 -6 5 -19 10 -30 13 -23 13 -23 -38 -5 -22 8 -43 12
-45 9 -8 -7 25 -73 35 -73 5 0 4 9 -2 19 -18 35 -12 41 32 25 22 -8 43 -12 45
-10 7 7 -20 76 -29 76 -4 0 -8 -5 -8 -11z"/>
<path d="M4995 3860 c-21 -40 -20 -44 20 -63 48 -23 60 -21 73 8 18 40 15 50
-23 68 -48 23 -52 22 -70 -13z m59 0 c27 -10 32 -25 17 -49 -8 -12 -14 -12
-40 -1 -35 14 -35 14 -21 41 12 22 11 22 44 9z"/>
<path d="M3880 3843 c-14 -9 -27 -18 -29 -19 -4 -4 39 -74 45 -74 14 0 64 32
64 40 0 6 -11 3 -26 -6 -18 -13 -28 -14 -36 -6 -8 8 -7 13 5 18 24 9 21 27 -3
19 -11 -4 -20 -2 -20 4 0 6 4 11 8 11 5 0 17 7 28 15 28 21 -4 20 -36 -2z"/>
<path d="M5131 3791 c-26 -35 -29 -60 -6 -41 18 15 31 6 37 -24 1 -11 8 -21
15 -23 7 -3 9 3 6 17 -4 13 -1 20 7 18 6 -2 17 5 23 15 10 15 7 22 -16 43 -36
31 -41 30 -66 -5z m69 -23 c0 -14 -16 -16 -34 -3 -25 18 -12 39 14 22 11 -6
20 -15 20 -19z"/>
<path d="M3813 3762 c6 -46 4 -48 -33 -27 -29 16 -40 18 -40 7 0 -9 64 -42 80
-42 14 0 12 87 -2 96 -8 5 -9 -5 -5 -34z"/>
<path d="M5235 3710 c-28 -29 -28 -30 -9 -51 30 -34 50 -41 65 -23 11 13 10
15 -2 13 -20 -3 -49 11 -49 25 0 6 7 20 15 30 14 19 15 19 35 1 11 -10 17 -21
15 -26 -3 -4 -1 -10 4 -13 5 -4 13 -1 16 5 7 10 -41 69 -55 69 -3 0 -19 -13
-35 -30z"/>
<path d="M3667 3682 l-27 -28 28 -27 c33 -32 46 -34 37 -7 -5 17 -2 20 24 20
17 0 31 5 31 10 0 6 -3 10 -8 10 -4 0 -12 10 -17 22 -14 33 -37 33 -68 0z m48
-1 c6 -11 -33 -36 -42 -27 -7 7 16 36 28 36 4 0 10 -4 14 -9z"/>
<path d="M5338 3627 c-35 -28 -35 -37 -1 -71 33 -33 45 -25 13 9 -23 24 -21
50 2 27 7 -7 17 -12 22 -12 6 0 5 5 -2 12 -7 7 -12 19 -12 27 0 10 7 8 25 -9
14 -13 28 -20 32 -17 6 7 -35 57 -46 57 -3 -1 -18 -11 -33 -23z"/>
<path d="M3582 3597 c-28 -30 -27 -37 10 -66 l31 -25 23 28 c13 15 24 32 24
39 0 7 -12 -1 -26 -17 -27 -31 -46 -28 -26 4 13 22 3 27 -16 8 -23 -23 -25 3
-2 27 13 14 19 25 13 25 -5 0 -19 -10 -31 -23z"/>
<path d="M4507 3563 c-45 -7 -89 -61 -131 -164 -57 -136 -105 -229 -117 -229
-6 0 -28 14 -48 30 -20 17 -40 34 -46 38 -15 11 -188 145 -205 159 -65 53
-196 153 -202 153 -4 0 -42 -43 -84 -96 l-77 -95 50 -52 c28 -29 216 -239 419
-467 202 -228 385 -433 406 -455 l39 -40 26 30 c49 56 148 168 193 218 25 27
54 60 65 72 11 13 153 172 315 355 162 182 296 335 298 340 5 14 -139 185
-154 184 -7 -1 -40 -22 -71 -48 -73 -58 -256 -200 -351 -273 -62 -48 -75 -54
-87 -42 -19 20 -105 229 -105 256 0 32 45 63 91 63 46 0 49 10 12 32 -53 30
-153 43 -236 31z"/>
<path d="M5433 3545 c-7 -8 -21 -18 -30 -24 -10 -5 -15 -13 -10 -17 4 -4 16 1
27 11 20 18 20 18 14 -13 -6 -31 -5 -32 26 -32 l32 0 -23 -19 c-13 -11 -22
-22 -19 -25 9 -8 71 45 64 55 -3 6 -20 7 -36 3 -31 -6 -31 -6 -25 30 6 39 -1
51 -20 31z"/>
<path d="M3507 3503 c-27 -38 -29 -55 -3 -34 12 10 20 9 41 -5 35 -23 42 -11
8 15 -23 19 -25 25 -15 42 22 35 -4 20 -31 -18z"/>
<path d="M3460 3432 c0 -6 10 -18 21 -26 21 -14 20 -15 -20 -27 -50 -15 -52
-30 -6 -52 40 -19 48 -5 9 16 l-26 14 46 13 c26 7 45 17 44 22 -5 14 -68 51
-68 40z"/>
<path d="M5498 3399 l-27 -20 22 -36 c22 -38 37 -31 17 8 -8 14 -8 25 -2 31 7
7 12 3 17 -11 3 -12 11 -19 16 -15 6 4 6 11 -2 20 -6 8 -9 18 -5 22 4 4 12 0
16 -8 22 -36 29 -44 35 -39 10 10 -29 69 -45 69 -8 -1 -27 -10 -42 -21z"/>
<path d="M5565 3296 c-30 -15 -35 -21 -22 -24 10 -2 25 2 34 10 17 14 18 18
-3 -68 -4 -15 -3 -25 2 -22 5 2 24 10 41 17 18 7 30 17 27 22 -3 5 -14 4 -25
-2 -27 -14 -31 -8 -18 29 18 52 10 60 -36 38z"/>
<path d="M3385 3291 c7 -12 75 -35 82 -28 7 7 -52 37 -72 37 -9 0 -14 -4 -10
-9z"/>
<path d="M5405 3248 c-22 -28 -45 -56 -50 -62 -6 -6 -32 -38 -59 -71 l-48 -59
44 -41 c24 -22 82 -74 128 -115 45 -41 97 -90 115 -109 45 -47 57 -35 49 47
-12 142 -54 304 -105 404 -16 32 -30 58 -32 58 -1 -1 -20 -24 -42 -52z"/>
<path d="M3545 3260 c-31 -59 -73 -187 -88 -265 -22 -112 -31 -235 -17 -235 6
0 43 31 83 69 39 37 111 103 159 146 94 83 93 81 43 137 -16 18 -56 66 -88
106 -32 39 -62 72 -67 72 -5 0 -16 -13 -25 -30z"/>
<path d="M5655 3171 c5 -15 0 -21 -25 -26 -16 -4 -30 -11 -30 -16 0 -12 17
-11 40 1 15 8 21 6 30 -11 7 -11 14 -19 17 -16 7 8 -19 87 -29 87 -5 0 -7 -9
-3 -19z"/>
<path d="M3329 3153 c-5 -16 -12 -34 -14 -41 -3 -8 9 -19 30 -28 46 -19 52
-18 59 10 3 13 8 31 12 39 7 20 -22 47 -52 47 -18 0 -27 -8 -35 -27z m67 -7
c9 -24 -13 -55 -36 -49 -26 7 -29 13 -19 41 9 25 46 30 55 8z"/>
<path d="M3300 3031 c0 -6 12 -11 28 -11 l27 -1 -39 -34 c-22 -19 -37 -37 -35
-39 11 -10 89 -15 89 -6 0 5 -11 10 -25 10 -33 0 -32 8 8 41 17 15 30 29 27
32 -12 12 -80 19 -80 8z"/>
<path d="M3765 2993 c-233 -200 -317 -276 -323 -291 -15 -39 63 -362 88 -362
4 0 22 17 40 38 18 20 63 69 99 107 80 85 245 266 285 313 19 22 19 22 -40 89
-32 38 -72 82 -89 100 l-30 32 -30 -26z"/>
<path d="M5136 2924 c-48 -53 -86 -103 -84 -110 2 -7 35 -46 73 -86 39 -40
135 -144 214 -230 79 -87 147 -158 151 -158 11 0 58 149 75 238 23 121 21 131
-33 174 -26 21 -58 48 -72 60 -21 19 -122 108 -216 191 -22 18 -22 18 -108
-79z"/>
<path d="M5650 2934 c-12 -4 -15 -14 -12 -39 2 -20 9 -38 14 -41 6 -4 8 7 6
27 -3 32 -1 34 30 37 17 2 32 7 32 13 0 9 -41 11 -70 3z"/>
<path d="M3308 2883 c-21 -9 -38 -19 -38 -24 0 -12 64 -59 80 -59 11 0 11 3 2
12 -14 14 -16 68 -2 68 6 0 10 5 10 10 0 13 -6 12 -52 -7z m22 -33 c0 -5 -7
-10 -15 -10 -8 0 -15 5 -15 10 0 6 7 10 15 10 8 0 15 -4 15 -10z"/>
<path d="M5652 2821 c-9 -5 -12 -24 -10 -52 l3 -44 43 -3 42 -3 0 49 c0 36 -4
52 -16 56 -22 8 -47 7 -62 -3z m68 -46 c0 -32 -2 -35 -30 -35 -28 0 -30 3 -30
35 0 32 2 35 30 35 28 0 30 -3 30 -35z"/>
<path d="M3349 2778 c-1 -2 -2 -16 -3 -33 -1 -26 -5 -30 -33 -33 -47 -5 -41
-22 7 -22 l40 0 0 45 c0 37 -5 56 -11 43z"/>
<path d="M3967 2760 c-7 -11 -51 -61 -98 -111 -46 -51 -92 -101 -102 -113 -10
-12 -60 -65 -110 -120 -51 -54 -96 -105 -100 -113 -14 -24 148 -270 173 -261
5 2 105 124 224 272 134 168 213 273 208 281 -4 7 -34 43 -67 80 -32 37 -65
75 -73 86 -17 24 -37 24 -55 -1z"/>
<path d="M4932 2685 c-52 -60 -80 -100 -76 -108 8 -12 244 -308 254 -317 3 -3
21 -25 40 -50 19 -25 39 -50 45 -56 5 -7 28 -35 50 -63 22 -28 43 -51 47 -51
23 0 183 244 172 262 -7 11 -38 45 -179 198 -82 89 -71 77 -165 180 -41 45
-76 87 -78 91 -8 21 -32 3 -110 -86z"/>
<path d="M5635 2640 c-8 -45 -2 -60 24 -60 20 0 35 36 20 46 -5 3 -9 -2 -9
-10 0 -9 -4 -16 -10 -16 -5 0 -10 14 -10 30 0 27 3 30 30 30 26 0 30 -4 30
-28 0 -15 -5 -33 -12 -40 -9 -9 -8 -12 4 -12 11 0 18 13 23 41 8 48 -2 59 -52
59 -29 0 -32 -3 -38 -40z"/>
<path d="M3281 2617 l-1 -48 43 3 c42 3 42 3 45 46 2 27 -1 42 -9 42 -7 0 -9
-11 -5 -35 6 -28 4 -35 -9 -35 -8 0 -15 9 -15 21 0 11 -4 18 -10 14 -5 -3 -7
-12 -4 -19 3 -8 1 -17 -5 -20 -5 -4 -14 12 -19 36 l-10 43 -1 -48z"/>
<path d="M5626 2531 c14 -13 72 -22 78 -12 6 10 -27 21 -63 21 -15 0 -21 -4
-15 -9z"/>
<path d="M3320 2519 c-24 -10 -24 -11 -6 -25 11 -8 26 -14 33 -14 18 0 16 -7
-9 -42 l-21 -31 39 7 c21 4 44 12 49 18 7 7 2 9 -17 4 -27 -6 -39 6 -18 19 18
11 11 32 -12 39 -22 6 -22 7 7 21 29 13 29 13 5 14 -14 0 -36 -5 -50 -10z"/>
<path d="M4227 2402 c-95 -135 -167 -237 -264 -375 -46 -65 -83 -119 -83 -122
0 -2 33 -24 73 -49 152 -95 317 -145 509 -153 153 -7 242 5 387 54 105 35 281
128 281 149 0 11 -15 35 -85 134 -22 30 -64 91 -94 135 -31 44 -59 85 -64 90
-10 11 -83 117 -130 187 -18 26 -37 48 -43 48 -5 0 -29 -21 -51 -47 -23 -27
-66 -75 -97 -108 l-56 -60 -57 61 c-32 33 -77 81 -101 107 -23 26 -46 47 -50
47 -4 0 -38 -44 -75 -98z"/>
<path d="M5607 2483 c-15 -25 -18 -76 -6 -84 23 -14 29 -11 47 29 14 33 16 35
20 13 2 -13 -1 -28 -7 -34 -13 -13 -14 -27 -2 -27 12 0 34 67 26 80 -3 5 -15
10 -26 10 -14 0 -21 -9 -25 -30 -4 -17 -13 -30 -21 -30 -15 0 -10 35 8 55 5 5
9 13 9 17 0 10 -17 10 -23 1z"/>
<path d="M3383 2375 c-37 -16 -39 -22 -18 -71 13 -32 18 -35 42 -29 48 11 55
25 37 73 -19 47 -17 46 -61 27z m50 -39 c10 -31 10 -31 -20 -40 -18 -6 -25 -1
-37 22 -14 28 -14 30 7 40 30 14 39 10 50 -22z"/>
<path d="M5635 2339 c-5 -6 -22 -8 -47 -4 -47 8 -45 -10 2 -20 26 -6 29 -10
24 -31 -11 -42 10 -26 27 21 15 40 11 62 -6 34z"/>
<path d="M5520 2266 c0 -5 65 -46 74 -46 17 0 3 21 -24 35 -28 15 -50 19 -50
11z"/>
<path d="M3443 2239 c-36 -23 -44 -40 -15 -33 24 7 48 -32 31 -52 -20 -24 -3
-26 35 -3 40 23 47 34 16 26 -15 -4 -26 2 -37 20 -16 23 -16 26 0 35 17 9 23
28 10 28 -5 0 -23 -10 -40 -21z"/>
<path d="M5502 2212 c-17 -5 -44 -60 -37 -72 11 -17 27 -11 20 9 -7 24 18 45
45 36 32 -10 24 -45 -15 -59 -16 -6 -17 -9 -5 -16 11 -7 21 -3 37 18 13 15 23
32 23 38 0 15 -53 52 -68 46z"/>
<path d="M5416 2094 c-28 -28 -37 -52 -24 -61 18 -11 60 -33 63 -33 2 0 14 14
26 31 22 31 22 32 4 45 -17 12 -22 11 -47 -13 -35 -34 -49 -23 -14 12 14 14
26 28 26 30 0 10 -19 4 -34 -11z m52 -54 c-7 -11 -19 -20 -25 -20 -11 0 -11 4
-1 20 7 11 19 20 25 20 11 0 11 -4 1 -20z"/>
<path d="M3609 2024 c-12 -16 -12 -17 3 -12 10 4 23 -1 34 -13 17 -19 17 -21
-5 -42 -22 -22 -22 -22 -37 -3 -8 11 -14 26 -14 33 0 7 -4 13 -10 13 -19 0
-10 -29 17 -54 l27 -25 28 20 c35 26 35 38 0 73 -27 25 -30 26 -43 10z"/>
<path d="M5276 1941 c-22 -23 -27 -36 -22 -55 8 -33 40 -42 72 -21 38 25 40
43 7 76 l-29 29 -28 -29z m49 -21 c18 -20 18 -21 -1 -35 -38 -29 -67 -7 -44
34 13 26 22 26 45 1z"/>
<path d="M3686 1913 c-14 -15 -22 -31 -19 -35 3 -5 6 -8 7 -6 0 2 14 18 30 36
17 17 25 32 18 32 -6 0 -22 -12 -36 -27z"/>
<path d="M3729 1868 l-23 -31 30 -23 c36 -30 51 -30 75 -1 25 30 24 42 -7 66
-36 28 -49 26 -75 -11z m64 -2 c22 -17 22 -29 -1 -49 -17 -16 -20 -15 -42 8
-26 27 -21 46 6 24 15 -12 16 -11 10 9 -8 25 1 28 27 8z"/>
<path d="M5197 1874 c-7 -8 42 -74 54 -74 15 0 10 14 -20 47 -15 18 -31 30
-34 27z"/>
<path d="M3860 1822 c0 -5 11 -15 25 -22 33 -18 32 -34 -2 -25 -27 6 -27 6 -9
-14 15 -16 16 -21 5 -21 -8 0 -20 5 -26 11 -6 6 -17 9 -24 7 -7 -2 4 -14 24
-26 l37 -21 25 36 24 37 -34 23 c-37 25 -45 28 -45 15z"/>
<path d="M5120 1783 c0 -21 5 -45 11 -53 8 -11 9 -4 7 28 -4 47 -3 47 32 27
28 -16 40 -18 40 -7 0 10 -58 42 -76 42 -10 0 -14 -12 -14 -37z"/>
<path d="M5050 1769 c0 -15 33 -69 42 -69 13 0 9 13 -12 48 -20 33 -30 40 -30
21z"/>
<path d="M3974 1724 c-5 -21 -11 -25 -30 -21 -35 6 -29 -5 16 -31 38 -21 53
-19 29 5 -8 8 -8 17 0 31 14 26 14 42 1 42 -5 0 -13 -12 -16 -26z"/>
<path d="M4958 1734 c-49 -26 -28 -70 24 -52 40 14 50 1 10 -14 -18 -7 -32
-16 -32 -20 0 -11 6 -10 45 6 37 16 40 22 25 46 -8 12 -14 13 -41 3 -18 -7
-35 -10 -38 -7 -9 8 30 34 52 34 10 0 15 5 12 10 -8 14 -25 12 -57 -6z"/>
<path d="M4040 1704 c0 -39 10 -74 22 -74 12 0 78 53 78 62 0 4 -13 5 -29 2
-21 -5 -34 0 -50 17 l-21 23 0 -30z m47 -37 c-6 -20 -27 -19 -27 2 0 14 5 19
15 14 9 -3 14 -10 12 -16z"/>
<path d="M4874 1684 c3 -9 9 -27 12 -40 5 -21 24 -35 24 -17 0 18 -25 73 -33
73 -5 0 -6 -7 -3 -16z"/>
<path d="M4164 1674 c3 -8 -1 -25 -9 -38 -18 -28 -6 -42 42 -52 27 -5 31 -3
42 27 6 17 11 39 11 48 -1 13 -4 12 -16 -4 -15 -20 -16 -20 -38 8 -24 30 -42
36 -32 11z m51 -55 c4 -6 5 -13 1 -16 -8 -8 -56 6 -56 17 0 13 47 13 55 -1z"/>
<path d="M4762 1669 c-31 -9 -33 -12 -27 -42 4 -18 11 -36 15 -41 9 -9 87 2
95 13 2 4 0 24 -6 44 -11 40 -19 42 -77 26z m60 -34 c6 -30 2 -35 -33 -35 -37
0 -55 44 -21 53 38 10 50 7 54 -18z"/>
<path d="M4308 1618 c-2 -21 -9 -34 -18 -34 -32 -3 -34 -6 -10 -14 14 -4 39
-8 55 -8 29 -1 29 0 7 10 -19 9 -21 16 -16 45 4 20 2 33 -4 33 -6 0 -12 -15
-14 -32z"/>
<path d="M4680 1645 c-1 -5 -1 -20 0 -33 l2 -23 -41 25 c-22 14 -42 22 -44 18
-8 -13 5 -82 15 -82 6 0 7 13 3 31 -8 34 -6 34 47 -3 35 -24 38 -23 37 10 0
28 -16 74 -19 57z"/>
<path d="M4390 1615 c0 -18 6 -25 20 -26 39 -3 43 -4 48 -16 4 -15 5 -15 -36
-4 -25 8 -32 7 -32 -5 0 -10 13 -14 46 -14 41 0 45 2 42 23 -2 16 -11 23 -33
25 -49 6 -57 25 -7 20 29 -2 42 0 42 9 0 9 -15 13 -45 13 -41 0 -45 -2 -45
-25z"/>
<path d="M5660 964 l0 -126 113 7 c61 4 114 10 117 12 8 8 13 161 6 198 l-7
35 -114 0 -115 0 0 -126z"/>
</g>
</svg>
