<?xml version="1.0" standalone="no"?>
<!DOCTYPE svg PUBLIC "-//W3C//DTD SVG 20010904//EN"
 "http://www.w3.org/TR/2001/REC-SVG-20010904/DTD/svg10.dtd">
<svg version="1.0" xmlns="http://www.w3.org/2000/svg"
 width="2400.000000pt" height="2400.000000pt" viewBox="0 0 2400.000000 2400.000000"
 preserveAspectRatio="xMidYMid meet">
<metadata>
Created by potrace 1.14, written by Peter Selinger 2001-2017
</metadata>
<g transform="translate(0.000000,2400.000000) scale(0.100000,-0.100000)"
fill="#000000" stroke="none">
<path d="M11638 23925 c-1 -2 -82 -6 -178 -10 -96 -3 -195 -8 -220 -10 -67 -5
-185 -14 -270 -20 -41 -3 -91 -7 -110 -10 -19 -2 -64 -7 -100 -10 -36 -3 -81
-7 -100 -10 -32 -4 -60 -8 -165 -21 -22 -2 -51 -7 -65 -9 -14 -2 -50 -7 -80
-10 -30 -3 -109 -15 -175 -26 -66 -11 -136 -22 -155 -24 -30 -4 -108 -18 -220
-39 -41 -8 -194 -38 -205 -40 -11 -3 -82 -17 -105 -21 -115 -21 -603 -142
-755 -186 -38 -12 -108 -32 -155 -46 -278 -81 -924 -305 -1077 -374 -23 -11
-44 -19 -48 -19 -3 0 -24 -9 -48 -19 -23 -11 -107 -47 -186 -81 -79 -34 -182
-79 -228 -101 -46 -21 -86 -39 -89 -39 -7 0 -507 -251 -564 -283 -25 -14 -65
-35 -90 -48 -25 -13 -88 -47 -140 -77 -52 -30 -111 -63 -130 -74 -57 -31 -123
-69 -160 -93 -19 -12 -89 -55 -155 -96 -555 -338 -1176 -802 -1685 -1258 -360
-322 -868 -837 -1056 -1070 -10 -13 -26 -31 -35 -40 -16 -17 -148 -174 -209
-250 -19 -23 -43 -53 -54 -64 -15 -18 -45 -57 -118 -152 -4 -5 -27 -35 -51
-65 -173 -220 -505 -703 -690 -1002 -53 -87 -97 -160 -97 -162 0 -2 -16 -28
-35 -57 -19 -30 -35 -58 -35 -63 0 -5 -6 -17 -14 -25 -7 -9 -30 -47 -51 -86
-21 -38 -72 -131 -113 -205 -78 -143 -307 -603 -362 -730 -18 -41 -46 -103
-61 -138 -16 -35 -29 -65 -29 -67 0 -2 -11 -28 -24 -57 -149 -330 -371 -960
-499 -1418 -96 -338 -210 -828 -251 -1075 -8 -49 -36 -208 -40 -230 -2 -11 -6
-41 -10 -66 -4 -25 -9 -57 -11 -70 -2 -13 -6 -40 -9 -59 -2 -19 -8 -57 -12
-85 -3 -27 -8 -58 -10 -69 -2 -10 -6 -44 -9 -75 -4 -31 -8 -67 -11 -81 -2 -14
-6 -54 -9 -90 -3 -36 -8 -76 -10 -90 -5 -28 -16 -145 -20 -205 -1 -22 -5 -74
-9 -115 -25 -302 -31 -481 -31 -925 1 -377 7 -636 20 -750 2 -22 7 -83 10
-135 3 -52 8 -111 10 -130 2 -19 6 -69 9 -110 4 -41 8 -86 10 -100 3 -14 7
-55 11 -92 3 -37 8 -77 10 -90 2 -13 7 -50 10 -83 12 -97 13 -103 19 -142 4
-21 9 -56 11 -78 3 -22 9 -65 15 -95 5 -30 11 -71 14 -90 3 -19 8 -46 11 -60
2 -13 7 -42 11 -65 3 -22 15 -87 26 -145 11 -58 22 -116 24 -130 8 -45 35
-173 51 -239 15 -65 19 -85 28 -131 11 -60 117 -468 159 -610 98 -339 242
-770 302 -907 8 -17 14 -34 14 -37 0 -14 144 -366 230 -562 201 -457 438 -911
735 -1406 76 -128 212 -336 334 -515 90 -132 299 -422 310 -433 4 -3 33 -41
65 -85 60 -80 234 -300 291 -365 16 -20 50 -60 75 -90 264 -317 716 -788 1030
-1074 36 -32 83 -75 105 -95 74 -68 259 -227 390 -335 163 -135 141 -117 270
-216 61 -46 112 -87 115 -90 3 -3 21 -17 40 -30 19 -14 40 -28 45 -33 105 -88
728 -509 900 -607 26 -15 190 -113 235 -140 121 -73 438 -244 660 -355 263
-132 323 -160 570 -267 102 -44 199 -86 215 -93 32 -14 270 -107 395 -155 196
-75 532 -186 780 -259 182 -54 188 -55 335 -95 123 -34 549 -135 635 -151 14
-3 50 -10 80 -17 30 -6 64 -13 75 -14 11 -1 54 -9 95 -17 100 -20 215 -40 300
-52 19 -3 60 -10 90 -15 30 -5 75 -12 100 -15 25 -3 56 -8 70 -10 14 -2 48 -7
75 -10 28 -3 64 -8 80 -10 105 -14 238 -29 365 -40 36 -3 83 -8 105 -10 36 -4
79 -7 275 -20 391 -27 1136 -27 1510 0 30 2 94 7 141 10 47 3 99 8 115 9 16 2
69 7 118 11 50 4 97 8 105 10 9 1 50 6 91 10 41 4 83 9 92 10 9 2 45 6 80 10
35 3 70 8 78 10 8 2 40 7 70 10 30 3 62 8 70 10 8 2 38 6 65 10 28 3 57 8 65
10 8 2 35 6 60 9 25 3 56 8 70 11 14 3 39 7 55 10 116 16 566 107 695 140 30
8 66 16 80 19 65 11 575 148 675 181 22 7 108 34 190 60 83 26 179 58 215 71
36 13 124 44 195 69 72 25 139 49 150 54 11 5 81 32 155 60 74 29 144 56 155
61 11 5 49 21 85 36 36 14 79 32 95 39 207 91 225 99 393 176 242 112 812 411
960 505 29 19 54 34 56 34 9 0 211 125 214 132 2 4 8 8 12 8 13 0 354 221 358
231 2 5 8 9 14 9 9 0 40 21 222 150 94 67 102 73 216 156 98 72 461 355 486
379 11 10 78 67 151 128 23 19 48 41 56 48 8 8 34 30 58 50 24 21 56 48 70 60
256 233 264 241 464 438 182 180 290 292 425 441 47 51 92 101 100 110 42 45
155 176 225 260 44 52 82 97 85 100 11 9 295 374 366 470 98 132 300 421 354
505 24 39 47 72 50 75 5 4 30 43 137 214 50 81 158 260 162 271 2 6 12 21 21
35 9 14 28 45 42 70 14 25 34 61 45 80 198 353 359 677 566 1140 30 69 166
406 197 490 123 335 154 426 234 680 43 138 149 513 161 565 1 6 7 29 14 52
13 49 79 333 87 378 3 17 9 46 14 65 5 19 12 53 16 75 3 22 8 43 10 46 2 3 6
21 9 40 3 19 9 54 15 79 15 70 37 202 60 350 11 74 22 144 24 155 10 55 20
133 32 230 3 33 8 69 10 80 2 10 6 49 10 85 3 36 7 76 10 90 2 14 6 57 9 95 3
39 7 88 10 110 2 22 7 81 10 130 4 50 8 110 10 135 26 305 26 1244 1 1533 -3
29 -8 94 -11 145 -4 51 -8 101 -10 110 -1 9 -6 56 -10 104 -3 49 -8 96 -9 105
-2 10 -7 50 -11 88 -8 81 -10 99 -30 255 -8 63 -17 126 -20 140 -2 14 -7 41
-9 60 -6 40 -15 104 -22 140 -2 14 -13 79 -25 145 -41 242 -103 530 -175 820
-49 197 -111 429 -124 460 -4 11 -18 56 -30 100 -21 75 -118 371 -174 530
-101 292 -270 706 -420 1030 -51 109 -259 526 -299 600 -18 33 -49 89 -69 125
-101 187 -312 544 -335 568 -7 7 -13 17 -13 22 0 24 -446 672 -609 885 -61 79
-372 469 -380 475 -3 3 -45 51 -93 106 -48 56 -93 108 -100 115 -7 8 -53 59
-103 114 -157 174 -496 518 -661 672 -137 127 -276 252 -338 304 -16 13 -34
29 -40 34 -127 118 -613 501 -811 640 -38 27 -72 52 -75 55 -3 3 -45 32 -95
65 -49 33 -92 63 -95 66 -8 10 -295 196 -448 291 -428 265 -942 537 -1402 743
-58 26 -118 53 -135 60 -68 31 -236 100 -320 132 -49 19 -103 41 -120 48 -150
67 -914 322 -1095 366 -19 4 -157 40 -307 78 -235 61 -358 89 -573 132 -53 11
-57 12 -175 34 -49 9 -99 19 -110 21 -10 2 -35 6 -55 9 -20 3 -45 7 -57 9 -37
7 -102 18 -298 46 -33 5 -82 12 -110 15 -27 4 -61 8 -75 10 -14 2 -47 6 -75 9
-54 6 -117 14 -180 21 -22 3 -69 7 -105 10 -36 3 -85 7 -110 10 -25 2 -81 6
-125 9 -172 12 -253 18 -325 22 -90 5 -937 14 -942 9z"/>
</g>
</svg>
